<svg xmlns="http://www.w3.org/2000/svg" viewBox="0 0 144.08 128.61"><title>&#x8D44;&#x6E90; 82</title><path d="M72.23 128.61c-7.1-.23-11.51-3.72-14.76-9.36C48 102.87 38.43 86.59 29.1 70.16a36 36 0 0 1-4.47-11.35A14.61 14.61 0 0 1 34 42.51c7.49-2.71 15.71-.21 19.67 6.43 7.52 12.56 14.77 25.27 22.12 37.92 3 5.17 5.89 10.43 9 15.51 5 8 3.45 18-4.22 23.31-2.3 1.62-5.52 1.99-8.34 2.93z" fill="#2ef2e9"/><path d="M72.66.33c6-.57 10.39 2.6 13.51 8C95.61 24.69 105 41.1 114.52 57.4c3.9 6.65-.28 17.13-6.39 20.44-8.93 4.83-17.88 1.28-21.86-5.62C76.82 55.86 67.14 39.62 58.11 23 52.06 12 59.61.24 72.66.33z" fill="#fa6663"/><path d="M144.08 15.83c-.58 8.62-6.73 15.57-15.51 15.66-9.31.09-16.87-7-16.95-15.62S119 0 127.87 0c9.13.09 16.22 7 16.21 15.83z" fill="#fbb355"/><path d="M16.24 31.5C7 31.33-.19 24.42 0 15.8.19 7.5 7.19-.06 14.64 0c10.53.08 18.27 6.73 17.61 15.9-.64 8.96-6.25 15.28-16.01 15.6z" fill="#8a56c2"/></svg>